<svg width="67" height="120" viewBox="0 0 67 120" fill="none" xmlns="http://www.w3.org/2000/svg">
<mask id="path-1-inside-1_8_65" fill="white">
<path d="M0.5 0H66.5V16H0.5V0Z"/>
</mask>
<path d="M0.5 0H66.5V16H0.5V0Z" fill="white" fill-opacity="0.01"/>
<path d="M66.5 15H0.5V17H66.5V15Z" fill="black" mask="url(#path-1-inside-1_8_65)"/>
<path d="M4.93672 3.46875V12H4.22187V3.46875H4.93672ZM7.86055 3.46875V4.08984H1.30391V3.46875H7.86055ZM9.37711 6.70898V12H8.67984V5.66016H9.35953L9.37711 6.70898ZM11.6212 5.61328L11.6037 6.25781C11.5255 6.24609 11.4494 6.23633 11.3752 6.22852C11.3009 6.2207 11.2209 6.2168 11.1349 6.2168C10.8302 6.2168 10.5627 6.27344 10.3322 6.38672C10.1056 6.49609 9.91422 6.65039 9.75797 6.84961C9.60172 7.04492 9.48258 7.27539 9.40055 7.54102C9.31851 7.80273 9.27164 8.08398 9.25992 8.38477L9.00211 8.48438C9.00211 8.07031 9.04508 7.68555 9.13101 7.33008C9.21695 6.97461 9.34781 6.66406 9.52359 6.39844C9.70328 6.12891 9.92789 5.91992 10.1974 5.77148C10.4709 5.61914 10.7912 5.54297 11.1584 5.54297C11.2482 5.54297 11.3361 5.55078 11.422 5.56641C11.5119 5.57812 11.5783 5.59375 11.6212 5.61328ZM16.8234 10.5352V5.66016H17.5265V12H16.8527L16.8234 10.5352ZM16.9523 9.36328L17.3155 9.35156C17.3155 9.75 17.2687 10.1172 17.1749 10.4531C17.0812 10.7891 16.9347 11.082 16.7355 11.332C16.5362 11.582 16.2784 11.7754 15.962 11.9121C15.6456 12.0488 15.2648 12.1172 14.8195 12.1172C14.5109 12.1172 14.2277 12.0742 13.9698 11.9883C13.7159 11.8984 13.4972 11.7578 13.3136 11.5664C13.13 11.375 12.9874 11.127 12.8859 10.8223C12.7882 10.5176 12.7394 10.1484 12.7394 9.71484V5.66016H13.4366V9.72656C13.4366 10.0664 13.4737 10.3496 13.548 10.5762C13.6261 10.8027 13.7316 10.9844 13.8644 11.1211C14.0011 11.2578 14.1573 11.3555 14.3331 11.4141C14.5089 11.4727 14.6984 11.502 14.9015 11.502C15.4171 11.502 15.8234 11.4023 16.1202 11.2031C16.421 11.0039 16.6339 10.7422 16.7589 10.418C16.8878 10.0898 16.9523 9.73828 16.9523 9.36328ZM21.797 5.66016V6.23438H18.6212V5.66016H21.797ZM19.7872 4.03125H20.4845V10.459C20.4845 10.752 20.5235 10.9727 20.6016 11.1211C20.6798 11.2695 20.7813 11.3691 20.9063 11.4199C21.0313 11.4707 21.1661 11.4961 21.3106 11.4961C21.4161 11.4961 21.5177 11.4902 21.6153 11.4785C21.713 11.4629 21.8009 11.4473 21.879 11.4316L21.9083 12.0234C21.8223 12.0508 21.711 12.0723 21.5743 12.0879C21.4376 12.1074 21.3009 12.1172 21.1641 12.1172C20.8946 12.1172 20.6563 12.0684 20.4493 11.9707C20.2423 11.8691 20.0802 11.6973 19.963 11.4551C19.8458 11.209 19.7872 10.875 19.7872 10.4531V4.03125ZM24.0049 3V12H23.3077V3H24.0049ZM23.8467 8.4375L23.5362 8.26172C23.5596 7.88672 23.6358 7.53516 23.7647 7.20703C23.8936 6.87891 24.0674 6.58984 24.2862 6.33984C24.5088 6.08984 24.7686 5.89453 25.0655 5.75391C25.3662 5.61328 25.6983 5.54297 26.0616 5.54297C26.378 5.54297 26.6612 5.58594 26.9112 5.67188C27.1612 5.75781 27.3741 5.89453 27.5498 6.08203C27.7256 6.26953 27.8584 6.50977 27.9483 6.80273C28.042 7.0957 28.0889 7.45312 28.0889 7.875V12H27.3858V7.86914C27.3858 7.43164 27.3252 7.08984 27.2041 6.84375C27.083 6.59375 26.9112 6.41602 26.6885 6.31055C26.4659 6.20508 26.2022 6.15234 25.8975 6.15234C25.5616 6.15234 25.2666 6.22656 25.0127 6.375C24.7627 6.51953 24.5518 6.70898 24.3799 6.94336C24.212 7.17383 24.083 7.42188 23.9932 7.6875C23.9034 7.94922 23.8545 8.19922 23.8467 8.4375ZM35.2998 5.66016V6.23438H32.124V5.66016H35.2998ZM33.29 4.03125H33.9873V10.459C33.9873 10.752 34.0263 10.9727 34.1045 11.1211C34.1826 11.2695 34.2841 11.3691 34.4091 11.4199C34.5341 11.4707 34.6689 11.4961 34.8134 11.4961C34.9189 11.4961 35.0205 11.4902 35.1181 11.4785C35.2158 11.4629 35.3037 11.4473 35.3818 11.4316L35.4111 12.0234C35.3252 12.0508 35.2138 12.0723 35.0771 12.0879C34.9404 12.1074 34.8037 12.1172 34.667 12.1172C34.3974 12.1172 34.1591 12.0684 33.9521 11.9707C33.7451 11.8691 33.583 11.6973 33.4658 11.4551C33.3486 11.209 33.29 10.875 33.29 10.4531V4.03125ZM40.6659 10.8633V7.59375C40.6659 7.29297 40.6034 7.0332 40.4784 6.81445C40.3534 6.5957 40.1698 6.42773 39.9277 6.31055C39.6855 6.19336 39.3866 6.13477 39.0312 6.13477C38.703 6.13477 38.4101 6.19336 38.1523 6.31055C37.8984 6.42383 37.6972 6.57812 37.5487 6.77344C37.4042 6.96484 37.332 7.17773 37.332 7.41211L36.6288 7.40625C36.6288 7.16797 36.6874 6.9375 36.8046 6.71484C36.9218 6.49219 37.0878 6.29297 37.3027 6.11719C37.5175 5.94141 37.7734 5.80273 38.0702 5.70117C38.371 5.5957 38.7011 5.54297 39.0605 5.54297C39.5136 5.54297 39.912 5.61914 40.2558 5.77148C40.6034 5.92383 40.8749 6.15234 41.0702 6.45703C41.2655 6.76172 41.3632 7.14453 41.3632 7.60547V10.6699C41.3632 10.8887 41.3788 11.1152 41.4101 11.3496C41.4452 11.584 41.4941 11.7773 41.5566 11.9297V12H40.8124C40.7655 11.8594 40.7284 11.6836 40.7011 11.4727C40.6777 11.2578 40.6659 11.0547 40.6659 10.8633ZM40.83 8.30859L40.8417 8.84766H39.4648C39.1054 8.84766 38.7831 8.88086 38.498 8.94727C38.2167 9.00977 37.9784 9.10352 37.7831 9.22852C37.5878 9.34961 37.4374 9.49609 37.332 9.66797C37.2304 9.83984 37.1796 10.0352 37.1796 10.2539C37.1796 10.4805 37.2362 10.6875 37.3495 10.875C37.4667 11.0625 37.6308 11.2129 37.8417 11.3262C38.0566 11.4355 38.3105 11.4902 38.6034 11.4902C38.9941 11.4902 39.3378 11.418 39.6347 11.2734C39.9355 11.1289 40.1835 10.9395 40.3788 10.7051C40.5741 10.4707 40.705 10.2148 40.7714 9.9375L41.0761 10.3418C41.0253 10.5371 40.9316 10.7383 40.7948 10.9453C40.662 11.1484 40.4882 11.3398 40.2734 11.5195C40.0585 11.6953 39.8046 11.8398 39.5116 11.9531C39.2226 12.0625 38.8945 12.1172 38.5273 12.1172C38.1132 12.1172 37.7519 12.0391 37.4433 11.8828C37.1386 11.7266 36.9003 11.5137 36.7284 11.2441C36.5605 10.9707 36.4765 10.6621 36.4765 10.3184C36.4765 10.0059 36.5429 9.72656 36.6757 9.48047C36.8085 9.23047 36.9999 9.01953 37.2499 8.84766C37.5038 8.67188 37.8085 8.53906 38.164 8.44922C38.5234 8.35547 38.9257 8.30859 39.371 8.30859H40.83ZM43.2723 3H43.9755V10.7695L43.9286 12H43.2723V3ZM48.3876 8.77148V8.89453C48.3876 9.36719 48.3329 9.80078 48.2235 10.1953C48.1141 10.5898 47.9559 10.9316 47.7489 11.2207C47.5419 11.5059 47.288 11.7266 46.9872 11.8828C46.6903 12.0391 46.3485 12.1172 45.9618 12.1172C45.5829 12.1172 45.247 12.0586 44.954 11.9414C44.661 11.8203 44.411 11.6504 44.204 11.4316C43.997 11.209 43.8309 10.9492 43.7059 10.6523C43.5809 10.3516 43.493 10.0215 43.4423 9.66211V8.09766C43.5009 7.71484 43.5946 7.36719 43.7235 7.05469C43.8524 6.74219 44.0184 6.47266 44.2216 6.24609C44.4286 6.01953 44.6747 5.8457 44.9598 5.72461C45.2489 5.60352 45.579 5.54297 45.9501 5.54297C46.3368 5.54297 46.6805 5.61914 46.9813 5.77148C47.286 5.91992 47.5419 6.13672 47.7489 6.42188C47.9559 6.70312 48.1141 7.04297 48.2235 7.44141C48.3329 7.83594 48.3876 8.2793 48.3876 8.77148ZM47.6786 8.89453V8.77148C47.6786 8.40039 47.6434 8.05664 47.5731 7.74023C47.5028 7.42383 47.3915 7.14844 47.2391 6.91406C47.0907 6.67578 46.8993 6.49023 46.6649 6.35742C46.4305 6.22461 46.1493 6.1582 45.8212 6.1582C45.4852 6.1582 45.1981 6.21484 44.9598 6.32812C44.7255 6.4375 44.5302 6.58398 44.3739 6.76758C44.2216 6.94727 44.1005 7.14453 44.0106 7.35938C43.9208 7.57422 43.8544 7.78516 43.8114 7.99219V9.81445C43.8778 10.1074 43.993 10.3828 44.1571 10.6406C44.3212 10.8984 44.5419 11.1074 44.8192 11.2676C45.0966 11.4238 45.4345 11.502 45.8329 11.502C46.1532 11.502 46.4286 11.4355 46.6591 11.3027C46.8934 11.1699 47.0848 10.9863 47.2333 10.752C47.3856 10.5176 47.497 10.2422 47.5673 9.92578C47.6415 9.60938 47.6786 9.26562 47.6786 8.89453ZM50.7596 3V12H50.0623V3H50.7596ZM55.1648 12.1172C54.7508 12.1172 54.3699 12.041 54.0223 11.8887C53.6785 11.7363 53.3777 11.5215 53.1199 11.2441C52.866 10.9668 52.6688 10.6387 52.5281 10.2598C52.3914 9.87695 52.323 9.45898 52.323 9.00586V8.75391C52.323 8.26562 52.3953 7.82422 52.5398 7.42969C52.6844 7.03516 52.8836 6.69727 53.1375 6.41602C53.3914 6.13477 53.6805 5.91992 54.0047 5.77148C54.3328 5.61914 54.6766 5.54297 55.0359 5.54297C55.4383 5.54297 55.7957 5.61523 56.1082 5.75977C56.4207 5.90039 56.6824 6.10156 56.8934 6.36328C57.1082 6.62109 57.2703 6.92773 57.3797 7.2832C57.4891 7.63477 57.5438 8.02344 57.5438 8.44922V8.87695H52.7449V8.2793H56.8465V8.19727C56.8387 7.8418 56.7664 7.50977 56.6297 7.20117C56.4969 6.88867 56.2977 6.63477 56.032 6.43945C55.7664 6.24414 55.4344 6.14648 55.0359 6.14648C54.7391 6.14648 54.4656 6.20898 54.2156 6.33398C53.9695 6.45898 53.7566 6.63867 53.577 6.87305C53.4012 7.10352 53.2645 7.37891 53.1668 7.69922C53.073 8.01562 53.0262 8.36719 53.0262 8.75391V9.00586C53.0262 9.35742 53.077 9.68555 53.1785 9.99023C53.284 10.291 53.4324 10.5566 53.6238 10.7871C53.8191 11.0176 54.0496 11.1973 54.3152 11.3262C54.5809 11.4551 54.8738 11.5195 55.1941 11.5195C55.5691 11.5195 55.9012 11.4512 56.1902 11.3145C56.4793 11.1738 56.7391 10.9531 56.9695 10.6523L57.409 10.9922C57.2723 11.1953 57.1004 11.3828 56.8934 11.5547C56.6902 11.7266 56.4461 11.8633 56.1609 11.9648C55.8758 12.0664 55.5438 12.1172 55.1648 12.1172Z" fill="#1C2024"/>
<rect width="8" height="16" transform="translate(0.5 24)" fill="white" fill-opacity="0.01"/>
<path d="M4.68945 28.6055L2.14062 36H0.599609L3.81055 27.4688H4.79492L4.68945 28.6055ZM6.82227 36L4.26758 28.6055L4.15625 27.4688H5.14648L8.36914 36H6.82227ZM6.69922 32.8359V34.002H2.05859V32.8359H6.69922Z" fill="#1C2024"/>
<rect width="7" height="16" transform="translate(1 44)" fill="white" fill-opacity="0.01"/>
<path d="M6.94727 51.002V52.4375C6.94727 53.0625 6.88867 53.6074 6.77148 54.0723C6.6543 54.5332 6.48242 54.916 6.25586 55.2207C6.0332 55.5215 5.75977 55.7461 5.43555 55.8945C5.11523 56.043 4.74805 56.1172 4.33398 56.1172C4.00586 56.1172 3.70508 56.0703 3.43164 55.9766C3.1582 55.8828 2.91406 55.7402 2.69922 55.5488C2.48828 55.3535 2.30859 55.1094 2.16016 54.8164C2.01172 54.5234 1.89844 54.1797 1.82031 53.7852C1.74219 53.3867 1.70312 52.9375 1.70312 52.4375V51.002C1.70312 50.373 1.76172 49.8301 1.87891 49.373C2 48.916 2.17188 48.5371 2.39453 48.2363C2.62109 47.9355 2.89648 47.7129 3.2207 47.5684C3.54492 47.4199 3.91211 47.3457 4.32227 47.3457C4.65039 47.3457 4.95117 47.3945 5.22461 47.4922C5.50195 47.5859 5.74609 47.7266 5.95703 47.9141C6.17188 48.1016 6.35156 48.3418 6.49609 48.6348C6.64453 48.9238 6.75586 49.2656 6.83008 49.6602C6.9082 50.0547 6.94727 50.502 6.94727 51.002ZM6.25 52.5195V50.9141C6.25 50.5273 6.22266 50.1758 6.16797 49.8594C6.11719 49.543 6.04102 49.2656 5.93945 49.0273C5.83789 48.7891 5.70898 48.5898 5.55273 48.4297C5.40039 48.2695 5.2207 48.1504 5.01367 48.0723C4.81055 47.9902 4.58008 47.9492 4.32227 47.9492C4.00586 47.9492 3.72656 48.0137 3.48438 48.1426C3.24609 48.2676 3.04688 48.4551 2.88672 48.7051C2.72656 48.9512 2.60547 49.2598 2.52344 49.6309C2.44531 50.002 2.40625 50.4297 2.40625 50.9141V52.5195C2.40625 52.9023 2.43164 53.252 2.48242 53.5684C2.5332 53.8809 2.61133 54.1582 2.7168 54.4004C2.82227 54.6426 2.95117 54.8477 3.10352 55.0156C3.25977 55.1797 3.43945 55.3047 3.64258 55.3906C3.84961 55.4727 4.08008 55.5137 4.33398 55.5137C4.6582 55.5137 4.93945 55.4492 5.17773 55.3203C5.41602 55.1875 5.61523 54.9941 5.77539 54.7402C5.93555 54.4824 6.05469 54.168 6.13281 53.7969C6.21094 53.4219 6.25 52.9961 6.25 52.5195Z" fill="#000714" fill-opacity="0.623529"/>
<rect width="7" height="16" transform="translate(1 64)" fill="white" fill-opacity="0.01"/>
<path d="M6.94727 71.002V72.4375C6.94727 73.0625 6.88867 73.6074 6.77148 74.0723C6.6543 74.5332 6.48242 74.916 6.25586 75.2207C6.0332 75.5215 5.75977 75.7461 5.43555 75.8945C5.11523 76.043 4.74805 76.1172 4.33398 76.1172C4.00586 76.1172 3.70508 76.0703 3.43164 75.9766C3.1582 75.8828 2.91406 75.7402 2.69922 75.5488C2.48828 75.3535 2.30859 75.1094 2.16016 74.8164C2.01172 74.5234 1.89844 74.1797 1.82031 73.7852C1.74219 73.3867 1.70312 72.9375 1.70312 72.4375V71.002C1.70312 70.373 1.76172 69.8301 1.87891 69.373C2 68.916 2.17188 68.5371 2.39453 68.2363C2.62109 67.9355 2.89648 67.7129 3.2207 67.5684C3.54492 67.4199 3.91211 67.3457 4.32227 67.3457C4.65039 67.3457 4.95117 67.3945 5.22461 67.4922C5.50195 67.5859 5.74609 67.7266 5.95703 67.9141C6.17188 68.1016 6.35156 68.3418 6.49609 68.6348C6.64453 68.9238 6.75586 69.2656 6.83008 69.6602C6.9082 70.0547 6.94727 70.502 6.94727 71.002ZM6.25 72.5195V70.9141C6.25 70.5273 6.22266 70.1758 6.16797 69.8594C6.11719 69.543 6.04102 69.2656 5.93945 69.0273C5.83789 68.7891 5.70898 68.5898 5.55273 68.4297C5.40039 68.2695 5.2207 68.1504 5.01367 68.0723C4.81055 67.9902 4.58008 67.9492 4.32227 67.9492C4.00586 67.9492 3.72656 68.0137 3.48438 68.1426C3.24609 68.2676 3.04688 68.4551 2.88672 68.7051C2.72656 68.9512 2.60547 69.2598 2.52344 69.6309C2.44531 70.002 2.40625 70.4297 2.40625 70.9141V72.5195C2.40625 72.9023 2.43164 73.252 2.48242 73.5684C2.5332 73.8809 2.61133 74.1582 2.7168 74.4004C2.82227 74.6426 2.95117 74.8477 3.10352 75.0156C3.25977 75.1797 3.43945 75.3047 3.64258 75.3906C3.84961 75.4727 4.08008 75.5137 4.33398 75.5137C4.6582 75.5137 4.93945 75.4492 5.17773 75.3203C5.41602 75.1875 5.61523 74.9941 5.77539 74.7402C5.93555 74.4824 6.05469 74.168 6.13281 73.7969C6.21094 73.4219 6.25 72.9961 6.25 72.5195Z" fill="#000714" fill-opacity="0.623529"/>
<rect width="7" height="16" transform="translate(1 84)" fill="white" fill-opacity="0.01"/>
<path d="M5.06641 87.4336V96H4.36914V88.3184L2.04883 89.1797V88.5176L4.94922 87.4336H5.06641Z" fill="#000714" fill-opacity="0.623529"/>
<rect width="7" height="16" transform="translate(1 104)" fill="white" fill-opacity="0.01"/>
<path d="M5.06641 107.434V116H4.36914V108.318L2.04883 109.18V108.518L4.94922 107.434H5.06641Z" fill="#000714" fill-opacity="0.623529"/>
<rect width="8" height="16" transform="translate(24.5 24)" fill="white" fill-opacity="0.01"/>
<path d="M28.5664 32.1445H26.3926L26.3809 31.0723H28.2793C28.5996 31.0723 28.8711 31.0254 29.0938 30.9316C29.3203 30.834 29.4922 30.6953 29.6094 30.5156C29.7266 30.332 29.7852 30.1113 29.7852 29.8535C29.7852 29.5684 29.7305 29.3359 29.6211 29.1562C29.5117 28.9766 29.3438 28.8457 29.1172 28.7637C28.8945 28.6816 28.6094 28.6406 28.2617 28.6406H26.8379V36H25.3672V27.4688H28.2617C28.7305 27.4688 29.1484 27.5137 29.5156 27.6035C29.8867 27.6934 30.2012 27.834 30.459 28.0254C30.7207 28.2129 30.918 28.4512 31.0508 28.7402C31.1875 29.0293 31.2559 29.373 31.2559 29.7715C31.2559 30.123 31.1719 30.4453 31.0039 30.7383C30.8359 31.0273 30.5879 31.2637 30.2598 31.4473C29.9316 31.6309 29.5234 31.7402 29.0352 31.7754L28.5664 32.1445ZM28.502 36H25.9297L26.5918 34.834H28.502C28.834 34.834 29.1113 34.7793 29.334 34.6699C29.5566 34.5566 29.7227 34.4023 29.832 34.207C29.9453 34.0078 30.002 33.7754 30.002 33.5098C30.002 33.2324 29.9531 32.9922 29.8555 32.7891C29.7578 32.582 29.6035 32.4238 29.3926 32.3145C29.1816 32.2012 28.9062 32.1445 28.5664 32.1445H26.9141L26.9258 31.0723H29.0762L29.4102 31.4766C29.8789 31.4922 30.2637 31.5957 30.5645 31.7871C30.8691 31.9785 31.0957 32.2266 31.2441 32.5312C31.3926 32.8359 31.4668 33.1641 31.4668 33.5156C31.4668 34.0586 31.3477 34.5137 31.1094 34.8809C30.875 35.248 30.5371 35.5273 30.0957 35.7188C29.6543 35.9062 29.123 36 28.502 36Z" fill="#1C2024"/>
<rect width="7" height="16" transform="translate(25 44)" fill="white" fill-opacity="0.01"/>
<path d="M30.9473 51.002V52.4375C30.9473 53.0625 30.8887 53.6074 30.7715 54.0723C30.6543 54.5332 30.4824 54.916 30.2559 55.2207C30.0332 55.5215 29.7598 55.7461 29.4355 55.8945C29.1152 56.043 28.748 56.1172 28.334 56.1172C28.0059 56.1172 27.7051 56.0703 27.4316 55.9766C27.1582 55.8828 26.9141 55.7402 26.6992 55.5488C26.4883 55.3535 26.3086 55.1094 26.1602 54.8164C26.0117 54.5234 25.8984 54.1797 25.8203 53.7852C25.7422 53.3867 25.7031 52.9375 25.7031 52.4375V51.002C25.7031 50.373 25.7617 49.8301 25.8789 49.373C26 48.916 26.1719 48.5371 26.3945 48.2363C26.6211 47.9355 26.8965 47.7129 27.2207 47.5684C27.5449 47.4199 27.9121 47.3457 28.3223 47.3457C28.6504 47.3457 28.9512 47.3945 29.2246 47.4922C29.502 47.5859 29.7461 47.7266 29.957 47.9141C30.1719 48.1016 30.3516 48.3418 30.4961 48.6348C30.6445 48.9238 30.7559 49.2656 30.8301 49.6602C30.9082 50.0547 30.9473 50.502 30.9473 51.002ZM30.25 52.5195V50.9141C30.25 50.5273 30.2227 50.1758 30.168 49.8594C30.1172 49.543 30.041 49.2656 29.9395 49.0273C29.8379 48.7891 29.709 48.5898 29.5527 48.4297C29.4004 48.2695 29.2207 48.1504 29.0137 48.0723C28.8105 47.9902 28.5801 47.9492 28.3223 47.9492C28.0059 47.9492 27.7266 48.0137 27.4844 48.1426C27.2461 48.2676 27.0469 48.4551 26.8867 48.7051C26.7266 48.9512 26.6055 49.2598 26.5234 49.6309C26.4453 50.002 26.4062 50.4297 26.4062 50.9141V52.5195C26.4062 52.9023 26.4316 53.252 26.4824 53.5684C26.5332 53.8809 26.6113 54.1582 26.7168 54.4004C26.8223 54.6426 26.9512 54.8477 27.1035 55.0156C27.2598 55.1797 27.4395 55.3047 27.6426 55.3906C27.8496 55.4727 28.0801 55.5137 28.334 55.5137C28.6582 55.5137 28.9395 55.4492 29.1777 55.3203C29.416 55.1875 29.6152 54.9941 29.7754 54.7402C29.9355 54.4824 30.0547 54.168 30.1328 53.7969C30.2109 53.4219 30.25 52.9961 30.25 52.5195Z" fill="#000714" fill-opacity="0.623529"/>
<rect width="7" height="16" transform="translate(25 64)" fill="white" fill-opacity="0.01"/>
<path d="M29.0664 67.4336V76H28.3691V68.3184L26.0488 69.1797V68.5176L28.9492 67.4336H29.0664Z" fill="#000714" fill-opacity="0.623529"/>
<rect width="7" height="16" transform="translate(25 84)" fill="white" fill-opacity="0.01"/>
<path d="M30.9473 91.002V92.4375C30.9473 93.0625 30.8887 93.6074 30.7715 94.0723C30.6543 94.5332 30.4824 94.916 30.2559 95.2207C30.0332 95.5215 29.7598 95.7461 29.4355 95.8945C29.1152 96.043 28.748 96.1172 28.334 96.1172C28.0059 96.1172 27.7051 96.0703 27.4316 95.9766C27.1582 95.8828 26.9141 95.7402 26.6992 95.5488C26.4883 95.3535 26.3086 95.1094 26.1602 94.8164C26.0117 94.5234 25.8984 94.1797 25.8203 93.7852C25.7422 93.3867 25.7031 92.9375 25.7031 92.4375V91.002C25.7031 90.373 25.7617 89.8301 25.8789 89.373C26 88.916 26.1719 88.5371 26.3945 88.2363C26.6211 87.9355 26.8965 87.7129 27.2207 87.5684C27.5449 87.4199 27.9121 87.3457 28.3223 87.3457C28.6504 87.3457 28.9512 87.3945 29.2246 87.4922C29.502 87.5859 29.7461 87.7266 29.957 87.9141C30.1719 88.1016 30.3516 88.3418 30.4961 88.6348C30.6445 88.9238 30.7559 89.2656 30.8301 89.6602C30.9082 90.0547 30.9473 90.502 30.9473 91.002ZM30.25 92.5195V90.9141C30.25 90.5273 30.2227 90.1758 30.168 89.8594C30.1172 89.543 30.041 89.2656 29.9395 89.0273C29.8379 88.7891 29.709 88.5898 29.5527 88.4297C29.4004 88.2695 29.2207 88.1504 29.0137 88.0723C28.8105 87.9902 28.5801 87.9492 28.3223 87.9492C28.0059 87.9492 27.7266 88.0137 27.4844 88.1426C27.2461 88.2676 27.0469 88.4551 26.8867 88.7051C26.7266 88.9512 26.6055 89.2598 26.5234 89.6309C26.4453 90.002 26.4062 90.4297 26.4062 90.9141V92.5195C26.4062 92.9023 26.4316 93.252 26.4824 93.5684C26.5332 93.8809 26.6113 94.1582 26.7168 94.4004C26.8223 94.6426 26.9512 94.8477 27.1035 95.0156C27.2598 95.1797 27.4395 95.3047 27.6426 95.3906C27.8496 95.4727 28.0801 95.5137 28.334 95.5137C28.6582 95.5137 28.9395 95.4492 29.1777 95.3203C29.416 95.1875 29.6152 94.9941 29.7754 94.7402C29.9355 94.4824 30.0547 94.168 30.1328 93.7969C30.2109 93.4219 30.25 92.9961 30.25 92.5195Z" fill="#000714" fill-opacity="0.623529"/>
<rect width="7" height="16" transform="translate(25 104)" fill="white" fill-opacity="0.01"/>
<path d="M29.0664 107.434V116H28.3691V108.318L26.0488 109.18V108.518L28.9492 107.434H29.0664Z" fill="#000714" fill-opacity="0.623529"/>
<rect width="18" height="16" transform="translate(48.5 24)" fill="white" fill-opacity="0.01"/>
<path d="M48.957 32.9004V32.7656C48.957 32.3086 49.0234 31.8848 49.1562 31.4941C49.2891 31.0996 49.4805 30.7578 49.7305 30.4688C49.9844 30.1758 50.293 29.9492 50.6562 29.7891C51.0234 29.625 51.4375 29.543 51.8984 29.543C52.3633 29.543 52.7773 29.625 53.1406 29.7891C53.5078 29.9492 53.8184 30.1758 54.0723 30.4688C54.3262 30.7578 54.5195 31.0996 54.6523 31.4941C54.7852 31.8848 54.8516 32.3086 54.8516 32.7656V32.9004C54.8516 33.3574 54.7852 33.7812 54.6523 34.1719C54.5195 34.5625 54.3262 34.9043 54.0723 35.1973C53.8184 35.4863 53.5098 35.7129 53.1465 35.877C52.7832 36.0371 52.3711 36.1172 51.9102 36.1172C51.4453 36.1172 51.0293 36.0371 50.6621 35.877C50.2988 35.7129 49.9902 35.4863 49.7363 35.1973C49.4824 34.9043 49.2891 34.5625 49.1562 34.1719C49.0234 33.7812 48.957 33.3574 48.957 32.9004ZM50.3691 32.7656V32.9004C50.3691 33.1855 50.3984 33.4551 50.457 33.709C50.5156 33.9629 50.6074 34.1855 50.7324 34.377C50.8574 34.5684 51.0176 34.7188 51.2129 34.8281C51.4082 34.9375 51.6406 34.9922 51.9102 34.9922C52.1719 34.9922 52.3984 34.9375 52.5898 34.8281C52.7852 34.7188 52.9453 34.5684 53.0703 34.377C53.1953 34.1855 53.2871 33.9629 53.3457 33.709C53.4082 33.4551 53.4395 33.1855 53.4395 32.9004V32.7656C53.4395 32.4844 53.4082 32.2188 53.3457 31.9688C53.2871 31.7148 53.1934 31.4902 53.0645 31.2949C52.9395 31.0996 52.7793 30.9473 52.584 30.8379C52.3926 30.7246 52.1641 30.668 51.8984 30.668C51.6328 30.668 51.4023 30.7246 51.207 30.8379C51.0156 30.9473 50.8574 31.0996 50.7324 31.2949C50.6074 31.4902 50.5156 31.7148 50.457 31.9688C50.3984 32.2188 50.3691 32.4844 50.3691 32.7656ZM59.8896 34.5059V29.6602H61.3076V36H59.9716L59.8896 34.5059ZM60.0888 33.1875L60.5634 33.1758C60.5634 33.6016 60.5166 33.9941 60.4228 34.3535C60.3291 34.709 60.1845 35.0195 59.9892 35.2852C59.7939 35.5469 59.5439 35.752 59.2392 35.9004C58.9345 36.0449 58.5693 36.1172 58.1435 36.1172C57.8349 36.1172 57.5517 36.0723 57.2939 35.9824C57.0361 35.8926 56.8134 35.7539 56.6259 35.5664C56.4423 35.3789 56.2998 35.1348 56.1982 34.834C56.0966 34.5332 56.0459 34.1738 56.0459 33.7559V29.6602H57.458V33.7676C57.458 33.998 57.4853 34.1914 57.54 34.3477C57.5947 34.5 57.6689 34.623 57.7627 34.7168C57.8564 34.8105 57.9658 34.877 58.0908 34.916C58.2158 34.9551 58.3486 34.9746 58.4892 34.9746C58.8916 34.9746 59.208 34.8965 59.4384 34.7402C59.6728 34.5801 59.8388 34.3652 59.9365 34.0957C60.038 33.8262 60.0888 33.5234 60.0888 33.1875ZM65.7011 29.6602V30.6914H62.1269V29.6602H65.7011ZM63.1581 28.1074H64.5702V34.248C64.5702 34.4434 64.5976 34.5938 64.6523 34.6992C64.7109 34.8008 64.7909 34.8691 64.8925 34.9043C64.9941 34.9395 65.1132 34.957 65.2499 34.957C65.3476 34.957 65.4413 34.9512 65.5312 34.9395C65.621 34.9277 65.6933 34.916 65.748 34.9043L65.7538 35.9824C65.6366 36.0176 65.4999 36.0488 65.3437 36.0762C65.1913 36.1035 65.0155 36.1172 64.8163 36.1172C64.4921 36.1172 64.205 36.0605 63.955 35.9473C63.705 35.8301 63.5097 35.6406 63.3691 35.3789C63.2284 35.1172 63.1581 34.7695 63.1581 34.3359V28.1074Z" fill="#1C2024"/>
<rect width="7" height="16" transform="translate(54 44)" fill="white" fill-opacity="0.01"/>
<path d="M59.9473 51.002V52.4375C59.9473 53.0625 59.8887 53.6074 59.7715 54.0723C59.6543 54.5332 59.4824 54.916 59.2559 55.2207C59.0332 55.5215 58.7598 55.7461 58.4355 55.8945C58.1152 56.043 57.748 56.1172 57.334 56.1172C57.0059 56.1172 56.7051 56.0703 56.4316 55.9766C56.1582 55.8828 55.9141 55.7402 55.6992 55.5488C55.4883 55.3535 55.3086 55.1094 55.1602 54.8164C55.0117 54.5234 54.8984 54.1797 54.8203 53.7852C54.7422 53.3867 54.7031 52.9375 54.7031 52.4375V51.002C54.7031 50.373 54.7617 49.8301 54.8789 49.373C55 48.916 55.1719 48.5371 55.3945 48.2363C55.6211 47.9355 55.8965 47.7129 56.2207 47.5684C56.5449 47.4199 56.9121 47.3457 57.3223 47.3457C57.6504 47.3457 57.9512 47.3945 58.2246 47.4922C58.502 47.5859 58.7461 47.7266 58.957 47.9141C59.1719 48.1016 59.3516 48.3418 59.4961 48.6348C59.6445 48.9238 59.7559 49.2656 59.8301 49.6602C59.9082 50.0547 59.9473 50.502 59.9473 51.002ZM59.25 52.5195V50.9141C59.25 50.5273 59.2227 50.1758 59.168 49.8594C59.1172 49.543 59.041 49.2656 58.9395 49.0273C58.8379 48.7891 58.709 48.5898 58.5527 48.4297C58.4004 48.2695 58.2207 48.1504 58.0137 48.0723C57.8105 47.9902 57.5801 47.9492 57.3223 47.9492C57.0059 47.9492 56.7266 48.0137 56.4844 48.1426C56.2461 48.2676 56.0469 48.4551 55.8867 48.7051C55.7266 48.9512 55.6055 49.2598 55.5234 49.6309C55.4453 50.002 55.4062 50.4297 55.4062 50.9141V52.5195C55.4062 52.9023 55.4316 53.252 55.4824 53.5684C55.5332 53.8809 55.6113 54.1582 55.7168 54.4004C55.8223 54.6426 55.9512 54.8477 56.1035 55.0156C56.2598 55.1797 56.4395 55.3047 56.6426 55.3906C56.8496 55.4727 57.0801 55.5137 57.334 55.5137C57.6582 55.5137 57.9395 55.4492 58.1777 55.3203C58.416 55.1875 58.6152 54.9941 58.7754 54.7402C58.9355 54.4824 59.0547 54.168 59.1328 53.7969C59.2109 53.4219 59.25 52.9961 59.25 52.5195Z" fill="#000714" fill-opacity="0.623529"/>
<rect width="7" height="16" transform="translate(54 64)" fill="white" fill-opacity="0.01"/>
<path d="M59.9473 71.002V72.4375C59.9473 73.0625 59.8887 73.6074 59.7715 74.0723C59.6543 74.5332 59.4824 74.916 59.2559 75.2207C59.0332 75.5215 58.7598 75.7461 58.4355 75.8945C58.1152 76.043 57.748 76.1172 57.334 76.1172C57.0059 76.1172 56.7051 76.0703 56.4316 75.9766C56.1582 75.8828 55.9141 75.7402 55.6992 75.5488C55.4883 75.3535 55.3086 75.1094 55.1602 74.8164C55.0117 74.5234 54.8984 74.1797 54.8203 73.7852C54.7422 73.3867 54.7031 72.9375 54.7031 72.4375V71.002C54.7031 70.373 54.7617 69.8301 54.8789 69.373C55 68.916 55.1719 68.5371 55.3945 68.2363C55.6211 67.9355 55.8965 67.7129 56.2207 67.5684C56.5449 67.4199 56.9121 67.3457 57.3223 67.3457C57.6504 67.3457 57.9512 67.3945 58.2246 67.4922C58.502 67.5859 58.7461 67.7266 58.957 67.9141C59.1719 68.1016 59.3516 68.3418 59.4961 68.6348C59.6445 68.9238 59.7559 69.2656 59.8301 69.6602C59.9082 70.0547 59.9473 70.502 59.9473 71.002ZM59.25 72.5195V70.9141C59.25 70.5273 59.2227 70.1758 59.168 69.8594C59.1172 69.543 59.041 69.2656 58.9395 69.0273C58.8379 68.7891 58.709 68.5898 58.5527 68.4297C58.4004 68.2695 58.2207 68.1504 58.0137 68.0723C57.8105 67.9902 57.5801 67.9492 57.3223 67.9492C57.0059 67.9492 56.7266 68.0137 56.4844 68.1426C56.2461 68.2676 56.0469 68.4551 55.8867 68.7051C55.7266 68.9512 55.6055 69.2598 55.5234 69.6309C55.4453 70.002 55.4062 70.4297 55.4062 70.9141V72.5195C55.4062 72.9023 55.4316 73.252 55.4824 73.5684C55.5332 73.8809 55.6113 74.1582 55.7168 74.4004C55.8223 74.6426 55.9512 74.8477 56.1035 75.0156C56.2598 75.1797 56.4395 75.3047 56.6426 75.3906C56.8496 75.4727 57.0801 75.5137 57.334 75.5137C57.6582 75.5137 57.9395 75.4492 58.1777 75.3203C58.416 75.1875 58.6152 74.9941 58.7754 74.7402C58.9355 74.4824 59.0547 74.168 59.1328 73.7969C59.2109 73.4219 59.25 72.9961 59.25 72.5195Z" fill="#000714" fill-opacity="0.623529"/>
<rect width="7" height="16" transform="translate(54 84)" fill="white" fill-opacity="0.01"/>
<path d="M59.9473 91.002V92.4375C59.9473 93.0625 59.8887 93.6074 59.7715 94.0723C59.6543 94.5332 59.4824 94.916 59.2559 95.2207C59.0332 95.5215 58.7598 95.7461 58.4355 95.8945C58.1152 96.043 57.748 96.1172 57.334 96.1172C57.0059 96.1172 56.7051 96.0703 56.4316 95.9766C56.1582 95.8828 55.9141 95.7402 55.6992 95.5488C55.4883 95.3535 55.3086 95.1094 55.1602 94.8164C55.0117 94.5234 54.8984 94.1797 54.8203 93.7852C54.7422 93.3867 54.7031 92.9375 54.7031 92.4375V91.002C54.7031 90.373 54.7617 89.8301 54.8789 89.373C55 88.916 55.1719 88.5371 55.3945 88.2363C55.6211 87.9355 55.8965 87.7129 56.2207 87.5684C56.5449 87.4199 56.9121 87.3457 57.3223 87.3457C57.6504 87.3457 57.9512 87.3945 58.2246 87.4922C58.502 87.5859 58.7461 87.7266 58.957 87.9141C59.1719 88.1016 59.3516 88.3418 59.4961 88.6348C59.6445 88.9238 59.7559 89.2656 59.8301 89.6602C59.9082 90.0547 59.9473 90.502 59.9473 91.002ZM59.25 92.5195V90.9141C59.25 90.5273 59.2227 90.1758 59.168 89.8594C59.1172 89.543 59.041 89.2656 58.9395 89.0273C58.8379 88.7891 58.709 88.5898 58.5527 88.4297C58.4004 88.2695 58.2207 88.1504 58.0137 88.0723C57.8105 87.9902 57.5801 87.9492 57.3223 87.9492C57.0059 87.9492 56.7266 88.0137 56.4844 88.1426C56.2461 88.2676 56.0469 88.4551 55.8867 88.7051C55.7266 88.9512 55.6055 89.2598 55.5234 89.6309C55.4453 90.002 55.4062 90.4297 55.4062 90.9141V92.5195C55.4062 92.9023 55.4316 93.252 55.4824 93.5684C55.5332 93.8809 55.6113 94.1582 55.7168 94.4004C55.8223 94.6426 55.9512 94.8477 56.1035 95.0156C56.2598 95.1797 56.4395 95.3047 56.6426 95.3906C56.8496 95.4727 57.0801 95.5137 57.334 95.5137C57.6582 95.5137 57.9395 95.4492 58.1777 95.3203C58.416 95.1875 58.6152 94.9941 58.7754 94.7402C58.9355 94.4824 59.0547 94.168 59.1328 93.7969C59.2109 93.4219 59.25 92.9961 59.25 92.5195Z" fill="#000714" fill-opacity="0.623529"/>
<rect width="7" height="16" transform="translate(54 104)" fill="white" fill-opacity="0.01"/>
<path d="M58.0664 107.434V116H57.3691V108.318L55.0488 109.18V108.518L57.9492 107.434H58.0664Z" fill="#000714" fill-opacity="0.623529"/>
</svg>
